<svg width="11" height="14" viewBox="0 0 11 14" fill="none" xmlns="http://www.w3.org/2000/svg">
<path d="M3.8082 13.125L3.21249 12.9055C2.74027 12.6906 2.31539 12.3842 1.96249 12.0039C1.41835 11.4219 0.818353 10.4137 1.04921 8.91367C1.25234 7.59609 2.77577 6.01484 3.75781 5.09063C4.82187 4.08984 6.33593 2.51836 6.26366 1.21758L6.23437 0.625H6.82733C8.83319 0.625 11 2.09453 11 4.46914C11 6.24922 10.1406 7.50078 8.30819 8.64492C7.99569 8.84023 7.66601 9.02227 7.31523 9.2125C6.11874 9.86172 4.37421 11.159 3.9664 12.5453L3.8082 13.125ZM3.07773 4.43711C3.85155 3.71094 4.55116 3.05273 4.8914 2.33555C4.81952 2.2918 4.7453 2.25156 4.66874 2.21484C4.20507 1.99258 3.64921 1.88906 2.92031 1.88906H2.25859L2.28046 2.5332C2.29882 3.08242 2.04374 3.4125 1.7207 3.83047C1.38281 4.26797 0.999994 4.76328 0.999994 5.50781C0.999994 5.90742 1.05038 6.24062 1.16406 6.5375C1.2552 6.39922 1.35429 6.26081 1.46132 6.12227C1.93749 5.50781 2.51796 4.96289 3.07773 4.43711Z" fill="#FFCC00"/>
</svg>
